<?xml version="1.0" encoding="utf-8"?>
<!-- Generator: Adobe Illustrator 26.0.0, SVG Export Plug-In . SVG Version: 6.00 Build 0)  -->
<svg version="1.1" id="Layer_1" xmlns="http://www.w3.org/2000/svg" xmlns:xlink="http://www.w3.org/1999/xlink" x="0px" y="0px"
	 width="755px" height="558.6px" viewBox="0 0 755 558.6" style="enable-background:new 0 0 755 558.6;" xml:space="preserve">
<style type="text/css">
	.st0{fill:#F5EFFB;}
	.st1{fill:#DFD0CB;}
	.st2{fill:#26A9E0;stroke:#231F20;stroke-width:7;stroke-miterlimit:10;}
	.st3{fill:#6D6E70;}
	.st4{fill:#231F20;}
	.st5{fill:#FFFFFF;}
	.st6{fill:#ED1C24;}
	.st7{fill:#AAB2C1;}
	.st8{fill:#26A9E0;}
	.st9{fill:#6FC9C9;}
	.st10{fill:#47939C;}
	.st11{fill:#167299;}
	.st12{fill:none;}
</style>
<g>
	<path class="st0" d="M165,149.3c69.4-41.7,144.4-46.7,176.9-48.8c43.3-2.9,67,2.3,172.5-1.3c30.2-1,39.8-1.8,66-2
		c90.3-0.7,135.8-0.6,150.9,21.3c16.9,24.6-2.7,65.1-16.3,93c-22.3,45.9-54.3,84.8-138.2,151.4c-60,47.7-117.4,92.8-205.8,135.7
		c-96.8,47-141.8,48.2-164.1,47.2c-22.9-0.9-67.3-3.3-110.8-33.5c-6-4.2-61.2-43.7-75.7-110.8C-2.1,296.5,90.3,194.3,165,149.3z"/>
	<ellipse class="st1" cx="358.4" cy="485.2" rx="155.8" ry="26.7"/>
	<g>
		<g>
			<path class="st2" d="M376.3,170.1C242.9,161,264.3,227.7,263,323.8c-1.3,97.8,113,67.6,179.3,72.2c3.7,0,6.3-0.7,7.7-2
				c4.1-3,1.3-31.5,2.1-36.1c0-6.5-3.3-9.7-9.8-9.7h-93.8c-19.7-0.1-27.2-7-27.4-25.7l0-9.7c0-3.2,1.9-4.9,5.6-4.9h116.6
				c6.5,0,9.8-3.1,9.8-9.3C453.6,237.5,462.7,170.7,376.3,170.1"/>
			<path class="st3" d="M164.3,288.5c0.8-36.5,7-66.8,22.2-94.9c2.3-4.3,5.1-8.3,7.7-12.4c0.3-0.5,0.8-0.9,1.2-1.3
				c0.3,0.5,0.7,1,0.9,1.5c4.4,14,11.9,26.2,22.6,36.2c1.2,1.1,1.3,1.9,0.5,3.4c-6.7,13.8-11.8,28.2-14.2,43.4
				c-2.7,16.9-2.5,33.7,1.1,50.4c6.1,28.8,19.4,53.9,40.8,74.4c22.5,21.6,49.1,36,79.7,42.1c45.4,9,87.1-0.3,124.7-27.2
				c29-20.7,48.3-48.4,57-83.2c8.3-33.1,4.6-65-9.8-95.8c-2.8-5.9-2.9-5.9,1.6-10.5c9-9.2,15.3-20.1,19.3-32.3
				c0.3-0.9,0.6-1.7,1-2.6c0.7,0.7,1.5,1.4,2,2.2c12.8,18.9,20.5,39.8,25.1,62.1c3.7,17.5,4.9,35.2,3.6,52.9
				c-2.8,37.8-16,71.7-39.5,101.4c-29.5,37.2-68,60.2-114.2,70c-18.9,4-38.2,4.9-57.6,3c-30.9-3-59.6-12.6-85.8-29.1
				c-47-29.6-76.7-71.4-86.7-126.4C165.5,305.4,164.9,294.5,164.3,288.5z"/>
			<path class="st3" d="M447.5,121.1c-0.5,1.5-0.8,2.4-1.2,3.4c-4.1,10.6-10.8,19-20.5,25.1c-1.9,1.2-3.5,1.3-5.7,0.3
				c-21.9-10.5-45-15.7-69.3-14.3c-19.1,1.1-37.4,5.8-54.7,14.1c-2.5,1.2-4.4,1.1-6.5-0.4c-9.7-6.5-16.7-15-20.4-26.3
				c-0.6-1.9-0.1-2.7,1.5-3.7c15.4-8.9,32-14.4,49.3-18.2c16.8-3.7,33.9-4.7,51-3.6c26.1,1.7,50.8,8.4,73.6,21.3
				C445.8,119.5,446.7,120.4,447.5,121.1z"/>
		</g>
		<path class="st2" d="M509.1,146.7c-0.7,17.8-7.3,33-21,44.6c-11,9.3-22.3,8.2-32.1-2.3c-4.4-4.8-7.7-10.3-10.5-16.2
			c-2.1-4.4-1-7,3.6-8.8c12-4.6,20.7-12.7,26.1-24.3c4.9-10.6,5.1-21.5,1-32.4c-0.5-1.2-0.9-2.4-1.4-3.6c-0.7-2-0.7-3.8,1-5.3
			c1.5-1.3,3.9-1.7,5.8-0.3c3.3,2.3,6.7,4.7,9.6,7.5c9.9,9.6,15.9,21.2,17.5,35C509,142.7,509,144.7,509.1,146.7z"/>
		<path class="st2" d="M248.5,197.7c-4.2,0-9.1-2.5-13.3-6.2c-14.9-13.3-21.9-29.9-20.4-49.8c1.4-18.3,10.9-32.1,25.5-42.7
			c0.9-0.7,2-1.2,3.1-1.4c3.5-0.7,6.2,1.9,5.3,5.4c-0.9,3.3-2.4,6.5-3.1,9.8c-3.4,16.1,0.9,29.9,12.7,41.3c4.6,4.5,10,7.9,16,10.1
			c4.4,1.6,5.6,4.4,3.5,8.6c-4,8.1-8.5,15.8-16.1,21.1C258.3,196.2,254.4,197.7,248.5,197.7z"/>
	</g>
	<path class="st4" d="M404.4,225.1c10.1,0,18.1,8.1,18.2,18.5c0,9-7,17.9-18.1,18c-9.8,0.1-17.9-8.1-17.9-17.9
		C386.5,233.4,394.5,225.2,404.4,225.1z M402.4,243.7c3.8,0,6.9-3.1,6.9-6.9c0-3.7-2.9-6.5-6.6-6.5c-3.7,0-6.8,3-6.8,6.8
		C395.8,240.6,398.8,243.6,402.4,243.7z"/>
	<path class="st4" d="M312.5,261.6c-10.1,0-18.5-7.2-18.6-18.2c-0.1-9.2,6.7-17.9,17.4-18.3c10.2-0.4,18.3,7.7,18.5,18.3
		C330.1,253.2,322.3,261.6,312.5,261.6z M309.2,230.2c-3.5,0-6.6,3.2-6.6,6.8c0,3.6,3,6.6,6.6,6.6c3.8,0,6.7-3,6.7-6.8
		C315.9,233.1,313,230.2,309.2,230.2z M302.7,249.8c0.7-0.2,1.6-1.2,1.7-1.9c0.1-0.5-1-1.6-1.6-1.6c-0.7,0-1.4,0.9-2.5,1.7
		C301.4,248.9,302.2,249.9,302.7,249.8z"/>
	<path class="st4" d="M351.1,274.2c2.3-0.1,4.4-0.9,6.3-2.4c0.6-0.5,0.9-0.7,1.7-0.1c7.1,5.2,16.5,1.2,17.7-7.6
		c0.2-1.5,0.2-3.1,0-4.6c-0.2-1.6-1.9-2.9-3.5-2.8c-1.7,0-3.1,1.1-3.4,2.8c-0.2,0.9-0.2,1.9-0.3,2.9c-0.2,2-1.2,3.4-2.9,4.2
		c-2.3,1-4.5-0.7-4.7-3.5c-0.2-2.5-1.3-3.8-3.2-4c-2.3-0.3-4.2,1.3-4.4,3.6c-0.3,2.8-1,3.9-3,4.1c-2.3,0.2-3.9-1.1-4.4-3.7
		c-0.2-0.7-0.2-1.5-0.2-2.2c-0.1-2.4-1.6-4-3.6-4.1c-2-0.1-3.7,1.5-3.8,3.8c-0.3,7,3.7,12.6,10.7,13.7
		C350.3,274.2,350.7,274.2,351.1,274.2z"/>
	<path class="st4" d="M302.9,264.8c-2.9,0.1-5.3,2.5-5.2,5.4c0.1,2.7,2.7,5,5.5,4.9c2.8-0.1,4.9-2.4,4.8-5.5
		C307.9,266.9,305.6,264.8,302.9,264.8z"/>
	<path class="st4" d="M418.8,269.8c0-2.8-2.2-5-5.1-4.9c-2.9,0.1-5.1,2.3-5.1,5.2c0,2.7,2.4,5.1,5.3,5.1
		C416.6,275.1,418.8,272.8,418.8,269.8z"/>
	<path class="st5" d="M395.9,237c0,3.6,2.9,6.6,6.5,6.7c3.8,0,6.9-3.1,6.9-6.9c0-3.7-2.9-6.5-6.6-6.5
		C398.9,230.2,395.9,233.2,395.9,237z"/>
	<path class="st5" d="M315.9,236.8c0-3.7-2.9-6.6-6.7-6.6c-3.5,0-6.6,3.2-6.6,6.8c0,3.6,3,6.6,6.6,6.6
		C313,243.6,315.9,240.6,315.9,236.8z"/>
	<path class="st5" d="M300.2,248c1.2,0.9,2,1.9,2.4,1.8c0.7-0.2,1.6-1.2,1.7-1.9c0.1-0.5-1-1.6-1.6-1.6
		C302.1,246.2,301.4,247.1,300.2,248z"/>
	<g>
		<path class="st6" d="M553.3,247.6c-3.2-2.6-5.9-6.2-6.9-10.3c-1-4.1,0-8.7,2.9-11.1c2.9-2.4,7.8-2,10.4,1.3c2-5,8.5-6.8,12.9-3.6
			c3.5,2.5,5.3,7.4,5,11.7s-2.5,8.2-5.4,10.9C566,252.6,560.8,253.5,553.3,247.6z"/>
		<path class="st6" d="M523.8,102.1c-3.2-2.6-5.9-6.2-6.9-10.3c-1-4.1,0-8.7,2.9-11.1c2.9-2.4,7.8-2,10.4,1.3c2-5,8.5-6.8,12.9-3.6
			c3.5,2.5,5.3,7.4,5,11.7c-0.3,4.3-2.5,8.2-5.4,10.9C536.4,107.2,531.3,108.1,523.8,102.1z"/>
		<path class="st6" d="M238.7,82.4c-2-3.6-3.1-7.9-2.5-12.1c0.6-4.2,3.3-8.1,6.9-9.2c3.6-1.1,8,1.1,9.1,5.1
			c3.7-3.9,10.4-3.1,13.3,1.6c2.3,3.6,2.1,8.8,0.2,12.7c-1.9,3.9-5.4,6.6-9.1,8.1C248.5,91.9,243.4,90.8,238.7,82.4z"/>
		<path class="st6" d="M182.3,156.1c-2-3.6-3.1-7.9-2.5-12.1c0.6-4.2,3.3-8.1,6.9-9.2c3.6-1.1,8,1.1,9.1,5.1
			c3.7-3.9,10.4-3.1,13.3,1.6c2.3,3.6,2.1,8.8,0.2,12.7c-1.9,3.9-5.4,6.6-9.1,8.1C192.1,165.5,187,164.5,182.3,156.1z"/>
		<path class="st6" d="M162.8,83.4c-1.2-2.2-1.9-4.8-1.5-7.3c0.4-2.5,2-4.8,4.1-5.5s4.8,0.6,5.5,3.1c2.2-2.3,6.2-1.9,8,0.9
			c1.4,2.2,1.3,5.3,0.1,7.6c-1.2,2.3-3.3,4-5.5,4.9C168.8,89.1,165.7,88.4,162.8,83.4z"/>
		<path class="st6" d="M557.1,124.2c-2.2-1.8-4.1-4.3-4.7-7.1c-0.7-2.8,0-6,2-7.7c2-1.7,5.4-1.4,7.2,0.9c1.4-3.4,5.8-4.7,8.9-2.5
			c2.4,1.7,3.7,5.1,3.4,8.1c-0.2,3-1.7,5.6-3.7,7.6C565.8,127.6,562.2,128.3,557.1,124.2z"/>
		<path class="st6" d="M374.5,29c-1.3-2.5-2.1-5.5-1.6-8.4c0.5-2.9,2.3-5.5,4.8-6.3c2.5-0.7,5.5,0.8,6.3,3.6c2.6-2.6,7.2-2,9.2,1.2
			c1.5,2.5,1.4,6.1,0,8.8c-1.4,2.7-3.8,4.5-6.4,5.5C381.2,35.6,377.7,34.8,374.5,29z"/>
		<path class="st6" d="M577.8,193.2c-1.3-1.1-2.4-2.5-2.8-4.2c-0.4-1.7,0-3.6,1.2-4.6c1.2-1,3.2-0.8,4.3,0.5
			c0.8-2.1,3.5-2.8,5.3-1.5c1.4,1,2.2,3,2,4.8c-0.1,1.8-1,3.4-2.2,4.5C583,195.3,580.9,195.7,577.8,193.2z"/>
		<path class="st6" d="M88.8,113c-1.7-3-2.6-6.7-2.1-10.2c0.5-3.5,2.8-6.8,5.8-7.7c3-0.9,6.7,0.9,7.7,4.3c3.1-3.3,8.8-2.6,11.2,1.3
			c1.9,3.1,1.8,7.4,0.2,10.7c-1.6,3.3-4.6,5.6-7.7,6.8C97.1,121,92.8,120.1,88.8,113z"/>
		<path class="st6" d="M446.9,43.5c-1.6-3-2.6-6.7-2-10.2c0.6-3.5,2.8-6.8,5.9-7.7c3.1-0.9,6.7,1,7.6,4.4c3.2-3.2,8.8-2.5,11.2,1.5
			c1.9,3.1,1.7,7.5,0,10.7c-1.7,3.3-4.6,5.5-7.8,6.7C455.1,51.6,450.7,50.6,446.9,43.5z"/>
		<path class="st6" d="M323.6,66.8c-1.6-3-2.6-6.7-2-10.2c0.6-3.5,2.8-6.8,5.9-7.7c3.1-0.9,6.7,1,7.6,4.4c3.2-3.2,8.8-2.5,11.2,1.5
			c1.9,3.1,1.7,7.5,0,10.7c-1.7,3.3-4.6,5.5-7.8,6.7C331.8,74.8,327.5,73.9,323.6,66.8z"/>
		<path class="st6" d="M525.5,164.6c-1.3-1.1-2.4-2.5-2.8-4.2c-0.4-1.7,0-3.6,1.2-4.6c1.2-1,3.2-0.8,4.3,0.5
			c0.8-2.1,3.5-2.8,5.3-1.5c1.4,1,2.2,3,2,4.8s-1,3.4-2.2,4.5C530.7,166.7,528.6,167.1,525.5,164.6z"/>
		<path class="st6" d="M212.2,21.5c-0.8-1.5-1.3-3.3-1-5c0.3-1.7,1.3-3.3,2.8-3.8c1.5-0.5,3.3,0.4,3.8,2.1c1.5-1.6,4.3-1.3,5.5,0.6
			c0.9,1.5,0.9,3.6,0.1,5.2c-0.8,1.6-2.2,2.7-3.8,3.3C216.2,25.4,214.1,25,212.2,21.5z"/>
		<path class="st6" d="M85.6,182.7c-2.4-1.2-4.6-3-5.8-5.5c-1.2-2.4-1.2-5.5,0.3-7.4c1.5-1.9,4.6-2.3,6.7-0.6c0.5-3.4,4.4-5.4,7.6-4
			c2.5,1.1,4.4,3.9,4.8,6.7c0.4,2.8-0.4,5.5-1.9,7.6C94.2,184.1,91.1,185.4,85.6,182.7z"/>
	</g>
	<g>
		<g>
			<g>
				<path class="st4" d="M139.5,158.9l-4.7,0.8c-2.2,0.4-3.7,2.5-3.3,4.7c0.4,2.2,2.5,3.7,4.7,3.3l4.7-0.8c0.1,0,0.1,0,0.2,0
					c2.1-0.5,3.5-2.5,3.1-4.6C143.9,160,141.8,158.5,139.5,158.9z M140.6,164.7l-4.7,0.8c-1,0.2-2-0.5-2.2-1.6c-0.2-1,0.5-2,1.5-2.2
					l0.1,0l4.7-0.8c1-0.2,2.1,0.5,2.2,1.6C142.3,163.6,141.6,164.6,140.6,164.7z"/>
				<path class="st4" d="M256.8,350.2c4-1.9,5.3-6.7,4.5-10.4c-0.1-0.5-0.3-1-0.4-1.5c2.2-0.1,4.4-0.3,6.6-0.6
					c-0.1,0.1-0.1,0.2-0.1,0.3c1.5-0.4,3.1-0.4,4.6-0.8c1.6-0.4,3.5-0.4,4.3-2.2c0.5-1.3,0.7-2.8,1.1-4.1c0.4-1.2,0.6-2.5,0.8-3.8
					c0.3-2.8,0.2-5.7-0.3-8.4c-1-5.6-3.2-11.1-6.5-15.7c-0.8-1.1-1.7-2.2-2.7-3.2c-0.5-0.6-1.2-1.3-1.9-1.6c-0.9-0.3-2.1,0.2-3,0.3
					c-1.6,0.4-3.2,0.8-4.8,0.9c-3,0.3-6,0.4-8.9,0.6c-1.8,0.1-3.7,0.2-5.5,0c-1.3,0-2.5,0-3.7-0.3c-0.9-0.2-1.8-0.7-2.8-1.1
					c-0.9-0.4-1.8-0.8-2.7-1.2c-3.1-1.1-6.5-1.4-9.7-0.6c-1.4,0.3-2.7,0.8-3.9,1.5L169,245.9c0.4-1,0.6-2.1,0.5-3.1l26.9-4.6
					c0.2,0,0.4-0.1,0.6-0.1c7.6-1.6,12.6-9,11.3-16.8l-8.1-47.3c-1.4-7.9-8.9-13.3-16.8-11.9l-30,5.1c1.1-2.1,1.6-4.5,1.1-6.9
					c-0.5-2.9-2.1-5.4-4.4-7c-2.4-1.7-5.3-2.3-8.1-1.8l-10.5,1.8c-5.9,1-9.9,6.6-8.9,12.6c0.4,2.4,1.7,4.5,3.4,6.1l-19,3.3
					c-3.8,0.7-7.2,2.8-9.4,6c-2.3,3.2-3.1,7-2.5,10.9l8.1,47.3c1.4,7.9,8.9,13.3,16.8,11.9l18.1-3.1c0.5,1.9,2.1,3.5,3.9,4.1
					c2.1,0.8,4.1,0.5,5.6,0.3l2.1-0.3l57.1,55.2c-2.6,5.7-2.2,12.5,0.9,17.9c3.2,5.5,9.2,9.2,15.6,9.7c1.5,0.1,3,0,4.3-0.3
					c1.5-0.3,2.9-0.9,4-1.7c0.5,0.3,1.1,0.6,1.6,0.9l0.7,0.4c1.1,0.6,1.3,1,1.3,1c0,0.1,0,0.5,0,0.7c0,0.5,0,1.2,0.1,1.9
					c0.5,3,2.8,4.8,4.2,5.8c1.9,1.5,4,3.1,6.1,4.5c1.3,0.8,2.9,1.8,4.7,2.3c1.6,0.4,3.2,0.5,4.6,0.2
					C255.7,350.6,256.3,350.4,256.8,350.2z M135,242.3l-16.1,2.7c-4.5,0.8-8.7-2.2-9.5-6.7l-0.1-0.9l-5.8-33.9l0,0l-2.1-12.5
					c-0.8-4.5,2.3-8.7,6.7-9.5l13.4-2.3L135,242.3z M142.8,240.9l-3.6,0.6l-13.6-63.1l3.6-0.6L142.8,240.9z M159.3,172.7l20.8-3.6
					l4.3-0.7c2.2-0.4,4.3,0.1,6.2,1.4c1,0.7,1.8,1.6,2.4,2.7c0.5,0.8,0.8,1.7,1,2.7l8.1,47.3c0.8,4.5-2.3,8.7-6.7,9.5l-22.4,3.9
					L159.3,172.7z M151.5,174l3.7-0.6c0,0,0,0.1,0,0.1l13.6,63l-3.7,0.6L151.5,174z M128.8,164.8c-0.4-2.4,1.2-4.7,3.5-5.2l0.2,0
					l10.5-1.8c1.2-0.2,2.4,0.1,3.4,0.8c1,0.7,1.6,1.8,1.8,2.9c0.2,1.2-0.1,2.4-0.8,3.4c-0.7,1-1.8,1.6-2.9,1.8l-10.5,1.8
					C131.6,168.9,129.3,167.2,128.8,164.8z M147,240.2l-13.6-63.1l13.9-2.4l13.6,63.1L147,240.2z M157.6,251.1l3.4-0.5
					c0.1,0,0.1,0,0.2,0l0,0c0.5-0.1,1-0.2,1.6-0.3c0.4-0.1,0.8-0.2,1.3-0.4l53.3,53c-0.2,0.4-0.3,0.8-0.4,1.3
					c-0.6-0.1-1.3-0.2-1.9-0.3c-1-0.1-1.9-0.1-2.8-0.1L157.6,251.1z M229.1,326.8c-1,1.6-3.5,2-5.4,1.9c-1.6-0.1-3.1-0.5-4.6-1.2
					l0,0c-2.5-1.1-4.6-3-5.9-5.3c-1.5-2.5-2-5.6-1.6-8.6l0,0c0.1-1.2,0.5-2.3,0.9-3.4c2.8-0.1,5.6,0.5,8,1.8l0,0
					c0.6,0.3,1.1,0.6,1.6,0.9c1.2,0.8,2.2,1.7,3.2,2.7c0,0.1,0,0.1,0.1,0.1c0.3,0.5,0.7,0.9,1.2,1.3c0.3,0.4,0.6,0.8,0.8,1.2l0,0
					c0.7,1.1,1.2,2.2,1.6,3.4C229.8,323.8,229.8,325.7,229.1,326.8z M231,312.3c-1.5-1.8-3.3-3.5-5.3-4.8c-0.4-0.2-0.7-0.4-1.1-0.7
					l0,0c-0.5-0.2-1-0.5-1.4-0.7c0.1-0.5,0.3-1.1,0.7-1.5c0.9-0.9,2.3-1.4,3.3-1.6c1.9-0.4,4.2-0.3,6.2,0.4c0.7,0.3,1.4,0.6,2.1,0.9
					c1.2,0.5,2.4,1.1,3.7,1.5c2.7,0.7,5.4,0.6,7.9,0.5c5.9-0.4,11.8-1.1,17.6-2.1c0.5,0.6,1.1,1.3,1.5,1.9c3.1,4.1,5.1,8.7,5.9,13.2
					c0.2,1,0.3,2,0.3,3c0.1,2.9-0.3,5.7-1.1,8.4c-0.3,0-0.7,0-1,0c-4.2,0.9-8.6,1.3-12.9,1.2c-0.1-0.2-0.3-0.4-0.4-0.5l-2.8-3.7
					c-0.6-0.8-1.6-2.1-3.3-2.7c-0.9-0.3-1.7-0.3-2.3-0.3c-0.2,0-0.3,0-0.4,0c-0.1-0.1-0.4-0.2-0.6-0.5c-0.3-0.2-0.6-0.6-0.7-0.7
					l-5-5.8c-1.5-1.8-3.8-4.5-7.3-5.1c-0.9-0.2-1.7-0.2-2.4-0.2c-0.3,0-0.7,0-1,0C231.1,312.3,231,312.3,231,312.3z M237,328.7
					c-0.3-0.1-0.6-0.3-0.9-0.4c-0.2-0.1-0.4-0.2-0.6-0.3c0.4-1.3,0.6-2.8,0.4-4.3c-0.1-1.3-0.4-2.6-0.8-3.9c0.6,0.6,1.3,1.3,2,2
					l5,5.8c0.6,0.7,1.5,1.7,2.6,2.4c-0.1,0.3-0.4,0.7-0.5,0.8c-0.4,0.5-0.8,0.9-1.2,1.3c-0.5,0.5-1.1,1-1.7,1.4
					C240.8,331.6,239.3,330,237,328.7z M242.4,337.9c-0.4-0.4-0.7-0.7-0.8-1c0-0.2,0-0.5,0-0.7c0-0.1,0-0.2,0-0.3
					c1.7-1,3.1-2.3,4.3-3.8c0.3-0.4,0.5-0.8,0.7-1.3c0.1,0,0.2,0.1,0.3,0.1c0.5,0.1,1,0.1,1.5,0.1c0.1,0,0.2,0,0.2,0
					c0.1,0.2,0.3,0.4,0.4,0.5l0.2,0.3c-0.3,0.7-0.8,1.4-1.6,2.2C246.2,335.6,244.4,336.9,242.4,337.9z M252.2,344.5
					c-1-0.3-2-0.9-2.9-1.5c-1.7-1.1-3.4-2.4-5-3.6c1.8-1,3.5-2.3,5-3.8c0.5-0.5,1-1.1,1.5-1.8l1.2,1.5c0.2,0.3,0.4,0.6,0.6,0.9
					c0.2,0.6,0.6,1.1,1.1,1.5c0.7,1.1,1.3,2.2,1.6,3.4c0.3,1.4-0.2,3-1.1,3.4C253.6,344.7,252.9,344.7,252.2,344.5z"/>
				<polygon class="st7" points="129.2,177.8 142.8,240.9 139.1,241.5 125.6,178.5 				"/>
				<path class="st7" d="M155.2,173.4c0,0,0,0.1,0,0.1l13.6,63l-3.7,0.6L151.5,174L155.2,173.4z"/>
				<path class="st7" d="M146.4,158.5c-1-0.7-2.2-1-3.4-0.8l-10.5,1.8l-0.2,0c-2.3,0.5-3.9,2.8-3.5,5.2c0.4,2.5,2.8,4.1,5.2,3.7
					l10.5-1.8c1.2-0.2,2.2-0.8,2.9-1.8c0.7-1,1-2.2,0.8-3.4C148,160.3,147.4,159.2,146.4,158.5z M141.1,166.8c-0.1,0-0.1,0-0.2,0
					l-4.7,0.8c-2.2,0.4-4.3-1.1-4.7-3.3c-0.4-2.2,1.1-4.3,3.3-4.7l4.7-0.8c2.2-0.4,4.3,1.1,4.7,3.3
					C144.6,164.3,143.2,166.4,141.1,166.8z"/>
				<path class="st5" d="M249.3,331.9c-0.3,0.7-0.8,1.4-1.6,2.2c-1.5,1.5-3.3,2.8-5.2,3.8c-0.4-0.4-0.7-0.7-0.8-1c0-0.2,0-0.5,0-0.7
					c0-0.1,0-0.2,0-0.3c1.7-1,3.1-2.3,4.3-3.8c0.3-0.4,0.5-0.8,0.7-1.3c0.1,0,0.2,0.1,0.3,0.1c0.5,0.1,1,0.1,1.5,0.1
					c0.1,0,0.2,0,0.2,0c0.1,0.2,0.3,0.4,0.4,0.5L249.3,331.9z"/>
				<path class="st8" d="M227.5,318.3L227.5,318.3c0.1,0.8,0,1.5-0.1,2.2c-0.4,2.5-2.1,4.8-4.3,6c-1.2,0.6-2.5,1-3.9,1l0,0
					c-2.5-1.1-4.6-3-5.9-5.3c-1.5-2.5-2-5.6-1.6-8.6l0,0c2.7-1.5,5.9-2.1,9-1.6l0,0c0.6,0.3,1.1,0.6,1.6,0.9
					c1.2,0.8,2.2,1.7,3.2,2.7c0,0.1,0,0.1,0.1,0.1c0.3,0.5,0.7,0.9,1.2,1.3C226.9,317.5,227.2,317.9,227.5,318.3z"/>
				<path class="st8" d="M272.1,319.3c0.2,1,0.3,2,0.3,3c-8.3-0.4-16.7,0.3-24.9,1.9c-0.3-0.2-0.6-0.6-0.7-0.7l-5-5.8
					c-1.5-1.8-3.8-4.5-7.3-5.1c-0.9-0.2-1.7-0.2-2.4-0.2c-0.3,0-0.7,0-1,0c-0.1,0-0.1,0-0.2,0c-1.5-1.8-3.3-3.5-5.3-4.8
					c-0.4-0.2-0.7-0.4-1.1-0.7c3.1-0.7,6.5-0.6,9.6-0.2c3.8,0.5,7.6,1.3,11.4,1.6c6.9,0.6,13.8-0.8,20.5-2.2
					C269.3,310.2,271.3,314.7,272.1,319.3z"/>
				<path class="st9" d="M122.2,183l11.5,53.4c-5.4,0.5-10.7,1-16.1,1.5c-2.2,0.2-4.5,0.4-6.6,0c-0.6-0.1-1.2-0.3-1.8-0.5l-5.8-33.9
					l0,0c-0.4-4.2-0.6-7.9-0.6-10.1c-0.2-7.2,6.4-8.5,6.4-8.5L122.2,183z"/>
				<path class="st9" d="M148.2,179.1l11.8,54.7c-4.5,0.5-9,1-13.4,1.4c-0.2,0-0.4,0.1-0.7,0.1l-11.6-54.1L148.2,179.1z"/>
				<path class="st9" d="M185.8,175.4c-0.3-0.6-0.7-1.2-1.1-1.8l-24.4,3.7l11.8,54.9c5.3-0.8,10.4-1.9,15.6-3.4
					c2.3-0.6,4.8-1.5,6-3.5c1.2-2,0.9-4.5,0.5-6.8c-1.6-10-3.2-20-4.8-30C188.7,184,187.9,179.4,185.8,175.4z M167.8,187.4
					c-1.8,0.4-3.5-0.7-3.9-2.5c-0.4-1.8,0.8-3.5,2.5-3.9c1.8-0.4,3.5,0.8,3.9,2.5C170.7,185.3,169.6,187,167.8,187.4z M179.2,187.1
					c-3.2,0.7-6.3-1.3-7-4.5c-0.7-3.2,1.3-6.3,4.5-7c3.2-0.7,6.3,1.3,7,4.5C184.3,183.3,182.3,186.4,179.2,187.1z"/>
				<path class="st10" d="M255.1,341c0.3,1.4-0.2,3-1.1,3.4c-0.4,0.2-1.2,0.2-1.9,0c-1-0.3-2-0.9-2.9-1.5c-1.7-1.1-3.4-2.4-5-3.6
					c1.8-1,3.5-2.3,5-3.8c0.5-0.5,1-1.1,1.5-1.8l1.2,1.6c0.2,0.3,0.4,0.6,0.6,0.9c0.2,0.6,0.6,1.1,1.1,1.5
					C254.3,338.7,254.9,339.9,255.1,341z"/>
				<path class="st10" d="M133.7,236.4l1.3,5.8l-16.1,2.7c-4.5,0.8-8.7-2.2-9.5-6.7l-0.1-0.9c0.6,0.2,1.2,0.4,1.8,0.5
					c2.2,0.4,4.4,0.2,6.6,0C123,237.4,128.4,236.9,133.7,236.4z"/>
				<path class="st10" d="M160,233.8l0.9,4l-13.9,2.4l-1.1-5c0.2,0,0.4,0,0.7-0.1C151,234.8,155.5,234.3,160,233.8z"/>
				<path class="st10" d="M194,175.1l8.1,47.3c0.8,4.5-2.3,8.7-6.7,9.5l-22.4,3.9l-0.8-3.6c5.3-0.8,10.4-1.9,15.6-3.4
					c2.3-0.6,4.8-1.5,6-3.5c1.2-2,0.9-4.5,0.5-6.8c-1.6-10-3.2-20-4.8-30c-0.7-4.4-1.5-9-3.6-13c-0.3-0.6-0.7-1.2-1.1-1.8
					c-1.2-1.8-2.8-3.4-4.6-4.6l4.3-0.7c2.2-0.4,4.3,0.1,6.2,1.4c1,0.7,1.8,1.6,2.4,2.7C193.5,173.2,193.8,174.1,194,175.1z"/>
				<path class="st7" d="M244.7,330c-0.1,0.3-0.4,0.7-0.5,0.8c-0.4,0.5-0.8,0.9-1.2,1.3c-0.5,0.5-1.1,1-1.7,1.4
					c-0.6-1.9-2-3.5-4.3-4.8c-0.3-0.1-0.6-0.3-0.9-0.4c-0.2-0.1-0.4-0.2-0.6-0.3c0.4-1.3,0.6-2.8,0.4-4.3c-0.1-1.3-0.4-2.6-0.8-3.9
					c0.6,0.6,1.3,1.3,2,2l5,5.8C242.6,328.3,243.5,329.2,244.7,330z"/>
				<path class="st7" d="M215.1,304c-1-0.1-1.9-0.1-2.8-0.1l-54.6-52.7l3.4-0.5c0.1,0,0.1,0,0.2,0l0,0L215.1,304z"/>
				<path class="st11" d="M229.1,326.8c-1,1.6-3.5,2-5.4,1.9c-1.6-0.1-3.1-0.5-4.6-1.2c1.3,0,2.7-0.4,3.9-1c2.3-1.2,3.9-3.5,4.3-6
					c0.1-0.7,0.2-1.5,0.1-2.2c0.7,1.1,1.2,2.2,1.6,3.4C229.8,323.8,229.8,325.7,229.1,326.8z"/>
				<path class="st11" d="M272.4,322.3c0.1,2.9-0.3,5.7-1.1,8.4c-0.3,0-0.7,0-1,0c-4.2,0.9-8.6,1.3-12.9,1.2
					c-0.1-0.2-0.3-0.4-0.4-0.5l-2.8-3.7c-0.6-0.8-1.6-2.1-3.3-2.7c-0.9-0.3-1.7-0.3-2.3-0.3c-0.2,0-0.3,0-0.4,0
					c-0.1-0.1-0.4-0.2-0.6-0.5C255.7,322.6,264.1,322,272.4,322.3z"/>
				<path class="st5" d="M266.2,306.1c-6.8,1.5-13.6,2.8-20.5,2.2c-3.8-0.3-7.6-1.2-11.4-1.6c-3.2-0.4-6.5-0.5-9.6,0.2l0,0
					c-0.5-0.2-1-0.5-1.4-0.7c0.1-0.5,0.3-1.1,0.7-1.5c0.9-0.9,2.3-1.4,3.3-1.6c1.9-0.4,4.2-0.3,6.2,0.4c0.7,0.3,1.4,0.6,2.1,0.9
					c1.2,0.5,2.4,1.1,3.7,1.5c2.7,0.7,5.4,0.6,7.9,0.5c5.9-0.4,11.8-1.1,17.6-2.1C265.2,304.8,265.7,305.5,266.2,306.1z"/>
				<path class="st5" d="M220.6,312c-3.1-0.5-6.3,0.1-9,1.6c0.1-1.2,0.5-2.3,0.9-3.4C215.3,310.1,218.1,310.7,220.6,312z"/>
				<path class="st5" d="M121.4,179.2l0.8,3.8l-13.1,1.9c0,0-6.6,1.3-6.4,8.5c0,2.2,0.3,5.9,0.6,10.1l-2.1-12.5
					c-0.8-4.5,2.3-8.7,6.7-9.5L121.4,179.2z"/>
				<polygon class="st5" points="147.3,174.7 148.2,179.1 134.3,181.2 133.4,177.1 				"/>
				<path class="st5" d="M184.7,173.6l-24.4,3.7l-1-4.6l20.8-3.6C182,170.2,183.5,171.8,184.7,173.6z"/>
			</g>
			<path class="st12" d="M231.8,241.1c-0.6,0.3-1.3,0.7-1.8,1.1"/>
			<line class="st12" x1="152.4" y1="178.5" x2="148.2" y2="179.1"/>
			<line class="st12" x1="160.3" y1="177.3" x2="156.1" y2="177.9"/>
			<line class="st12" x1="134.3" y1="181.2" x2="130.1" y2="181.8"/>
			<line class="st12" x1="126.4" y1="182.4" x2="122.2" y2="183"/>
			<path class="st4" d="M183.7,180.1c0.7,3.2-1.3,6.3-4.5,7c-3.2,0.7-6.3-1.3-7-4.5c-0.7-3.2,1.3-6.3,4.5-7
				C179.9,174.9,183,176.9,183.7,180.1z"/>
			<path class="st4" d="M170.4,183.5c0.4,1.8-0.7,3.5-2.5,3.9c-1.8,0.4-3.5-0.7-3.9-2.5c-0.4-1.8,0.8-3.5,2.5-3.9
				C168.2,180.6,170,181.7,170.4,183.5z"/>
			<path class="st5" d="M217.5,303c-0.2,0.4-0.3,0.8-0.4,1.3c-0.6-0.1-1.3-0.2-1.9-0.3l-53.8-53.4c0.5-0.1,1-0.2,1.6-0.3
				c0.4-0.1,0.8-0.2,1.3-0.4L217.5,303z"/>
		</g>
	</g>
</g>
</svg>
