<?xml version="1.0" encoding="utf-8"?>
<!-- Generator: Adobe Illustrator 26.0.0, SVG Export Plug-In . SVG Version: 6.00 Build 0)  -->
<svg version="1.1" id="Layer_1" xmlns="http://www.w3.org/2000/svg" xmlns:xlink="http://www.w3.org/1999/xlink" x="0px" y="0px"
	 width="115px" height="30px" viewBox="0 0 115 30" style="enable-background:new 0 0 115 30;" xml:space="preserve">
<style type="text/css">
	.st0{fill:#000F9F;}
	.st1{fill:#00ADEE;}
	.st2{fill:#FFFFFF;}
</style>
<g>
	<g>
		<path class="st0" d="M42.1,13.8c0-7.6-9.4-13.8-21-13.8C9.4,0,0,6.2,0,13.8c0,0.2,0,0.7,0,0.8c0,8,8.2,14.6,21.1,14.6
			s21.1-6.5,21.1-14.6C42.1,14.3,42.1,14.2,42.1,13.8z"/>
		<path class="st1" d="M41.3,13.8c0,7.2-9.1,13-20.2,13c-11.2,0-20.2-5.8-20.2-13s9.1-13,20.2-13C32.2,0.8,41.3,6.6,41.3,13.8z"/>
		<g>
			<path class="st2" d="M14.3,9.7c0,0-0.2,0.2-0.1,0.4c0.3,0.4,1.3,0.6,2.3,0.4c0.6-0.1,1.4-0.7,2.1-1.3c0.8-0.6,1.6-1.3,2.4-1.5
				c0.8-0.3,1.4-0.2,1.7,0c0.4,0.1,0.9,0.4,1.6,0.9c1.4,1,7,5.9,7.9,6.7c0.8-0.4,4.2-1.8,8.9-2.9c-0.4-2.5-1.9-4.8-4.2-6.6
				c-3.2,1.3-7.1,2.1-11,0.2c0,0-2.1-1-4.1-0.9c-3,0.1-4.4,1.4-5.8,2.8L14.3,9.7z"/>
			<path class="st2" d="M32.1,15.8c-0.1-0.1-6.5-5.7-8-6.8c-0.9-0.6-1.3-0.8-1.8-0.9c-0.3,0-0.6,0-0.9,0.1C20.7,8.4,19.8,9,19,9.6
				c-0.8,0.7-1.6,1.3-2.3,1.4c-0.9,0.2-2,0-2.6-0.4c-0.2-0.1-0.4-0.3-0.4-0.5c-0.2-0.4,0.2-0.8,0.2-0.8l1.8-1.9
				c0.2-0.2,0.4-0.4,0.6-0.6c-0.6,0.1-1.1,0.2-1.6,0.4c-0.6,0.2-1.3,0.4-1.9,0.4c-0.3,0-1.7-0.2-1.9-0.3c-1.6-0.4-3-0.9-5.2-1.9
				C3.2,7.2,1.5,9.6,1,12.2c0.4,0.1,1,0.3,1.2,0.3c5.8,1.3,7.5,2.6,7.9,2.9c0.4-0.4,0.9-0.6,1.4-0.6c0.6,0,1.2,0.3,1.6,0.8
				c0.3-0.3,0.8-0.5,1.4-0.5c0.3,0,0.5,0,0.8,0.1c0.6,0.2,1,0.7,1.2,1c0.2-0.1,0.5-0.2,0.8-0.2s0.6,0.1,1,0.2
				c1.1,0.5,1.2,1.5,1.1,2.3c0.1,0,0.2,0,0.2,0c1.3,0,2.3,1,2.3,2.3c0,0.4-0.1,0.8-0.3,1.1c0.3,0.2,1.2,0.6,2,0.5
				c0.6-0.1,0.8-0.3,0.9-0.4c0,0,0-0.1,0-0.1l-1.6-1.8c0,0-0.3-0.3-0.2-0.4c0.1-0.1,0.3,0,0.4,0.1c0.8,0.7,1.8,1.7,1.8,1.7
				s0.1,0.1,0.5,0.2c0.3,0.1,0.9,0,1.3-0.3c0.1-0.1,0.2-0.2,0.3-0.3l0,0c0.4-0.5,0-1.1,0-1.1l-2-2c0,0-0.3-0.3-0.2-0.4
				c0.1-0.1,0.3,0,0.4,0.1c0.6,0.5,1.4,1.4,2.3,2.1c0.2,0.1,0.9,0.6,1.8-0.1c0.6-0.4,0.7-0.8,0.7-1.2c0-0.5-0.4-0.8-0.4-0.8L27,15.1
				c0,0-0.3-0.2-0.2-0.4c0.1-0.1,0.3,0,0.4,0.1c0.8,0.7,3.1,2.7,3.1,2.7s0.8,0.6,1.8,0c0.3-0.2,0.6-0.5,0.6-0.9
				C32.5,16.2,32.1,15.8,32.1,15.8z"/>
			<path class="st2" d="M19.5,19.1c-0.4,0-0.8,0.2-0.9,0.2c0,0,0-0.2,0.1-0.3c0-0.1,0.6-1.7-0.7-2.2c-1-0.4-1.6,0.1-1.8,0.3
				c-0.1,0.1-0.1,0.1-0.1,0c0-0.3-0.1-1.1-1-1.3c-1.2-0.4-2,0.5-2.2,0.8c-0.1-0.7-0.7-1.2-1.4-1.2c-0.8,0-1.4,0.6-1.4,1.4
				s0.6,1.4,1.4,1.4c0.4,0,0.7-0.2,1-0.4l0,0c-0.1,0.3-0.2,1.6,1.2,2.1c0.5,0.2,1,0.1,1.4-0.2c0.1-0.1,0.1,0,0.1,0.1
				c0,0.3,0,1,1,1.4c0.7,0.3,1.2,0,1.5-0.3c0.1-0.1,0.2-0.1,0.2,0.1c0,0.9,0.8,1.7,1.8,1.7s1.8-0.8,1.8-1.8
				C21.3,19.9,20.5,19.1,19.5,19.1z"/>
		</g>
		<path class="st0" d="M32.3,15.1c-2-1.7-6.6-5.8-7.9-6.7c-0.7-0.5-1.2-0.8-1.6-0.9c-0.2-0.1-0.5-0.1-0.8-0.1s-0.7,0.1-1,0.2
			c-0.8,0.3-1.6,0.9-2.4,1.5l0,0c-0.7,0.6-1.5,1.2-2,1.3c-0.2,0.1-0.5,0.1-0.8,0.1c-0.6,0-1.2-0.2-1.4-0.5c0,0,0-0.1,0.1-0.2l0,0
			l1.8-1.9C17.7,6.5,19,5.2,22,5.2h0.1C24,5.2,25.8,6,26,6.1c1.7,0.9,3.5,1.3,5.4,1.3s3.8-0.5,5.9-1.4c-0.2-0.2-0.5-0.4-0.7-0.6
			c-1.8,0.8-3.5,1.2-5.2,1.2s-3.4-0.4-5-1.2c-0.1,0-2.1-1-4.3-1c-0.1,0-0.1,0-0.2,0c-2.5,0.1-3.9,1-4.9,1.7c-0.9,0-1.7,0.2-2.4,0.4
			c-0.6,0.2-1.2,0.3-1.7,0.3c-0.2,0-0.6,0-0.7,0C11.5,6.8,8.5,6,6,5.1C5.7,5.3,5.5,5.5,5.3,5.7C7.9,6.8,11,7.6,12,7.6
			c0.3,0,0.6,0,0.9,0c0.7,0,1.3-0.2,1.9-0.4c0.3,0,0.7-0.1,1.2-0.2c-0.1,0.1-0.2,0.2-0.3,0.3l-1.8,1.9c-0.1,0.1-0.4,0.5-0.2,1
			c0.1,0.2,0.2,0.4,0.5,0.5c0.4,0.3,1.2,0.5,1.9,0.5c0.3,0,0.5,0,0.8-0.1c0.7-0.2,1.5-0.8,2.4-1.5c0.7-0.5,1.6-1.2,2.3-1.4
			c0.2-0.1,0.4-0.1,0.6-0.1c0.1,0,0.1,0,0.2,0c0.5,0.1,0.9,0.2,1.8,0.8c1.5,1.1,8,6.8,8,6.8s0.4,0.4,0.4,1c0,0.3-0.2,0.6-0.5,0.8
			c-0.3,0.2-0.6,0.3-0.9,0.3c-0.4,0-0.7-0.2-0.8-0.2c0,0-2.2-2.1-3.1-2.7c-0.1-0.1-0.3-0.2-0.4-0.2s-0.1,0-0.2,0.1
			c-0.1,0.2,0,0.4,0.2,0.5l2.6,2.6c0,0,0.3,0.3,0.4,0.7c0,0.4-0.2,0.8-0.6,1.1C29,19.9,28.7,20,28.4,20c-0.4,0-0.7-0.2-0.7-0.2
			l-0.4-0.4c-0.7-0.7-1.4-1.4-1.9-1.8c-0.1-0.1-0.3-0.2-0.4-0.2s-0.1,0-0.2,0.1s-0.1,0.2,0,0.4c0.1,0.1,0.1,0.1,0.1,0.1l1.9,2.1
			c0,0,0.4,0.5,0,0.9l-0.1,0.1c-0.1,0.1-0.1,0.1-0.2,0.2c-0.3,0.3-0.8,0.3-0.9,0.3s-0.2,0-0.3,0c-0.2,0-0.3-0.1-0.4-0.2l0,0
			c-0.1-0.1-1.1-1.1-1.8-1.7c-0.1-0.1-0.2-0.2-0.4-0.2c-0.1,0-0.1,0-0.2,0.1c-0.2,0.2,0.1,0.4,0.2,0.5l1.6,1.8c0,0,0,0.1-0.1,0.1
			c-0.1,0.1-0.3,0.3-0.8,0.3c-0.1,0-0.1,0-0.2,0c-0.6,0-1.2-0.3-1.6-0.5c0.2-0.3,0.2-0.7,0.2-1c0-1.3-1.1-2.4-2.4-2.4h-0.1
			c0-0.6,0-1.8-1.2-2.3c-0.3-0.1-0.7-0.2-1-0.2s-0.5,0-0.7,0.1c-0.2-0.5-0.7-0.8-1.2-1c-0.2,0-0.5,0-0.8,0c-0.5,0-0.9,0.1-1.3,0.4
			c-0.4-0.5-1-0.8-1.6-0.8c-0.5,0-1.1,0.2-1.4,0.6c-0.5-0.4-2.5-1.7-7.8-2.9C2,12.2,1.4,12.1,1.1,12C1,12.3,1,12.6,1,12.9
			c0,0,1,0.2,1.2,0.3c5.5,1.2,7.3,2.5,7.6,2.7c-0.1,0.2-0.2,0.5-0.2,0.8c0,1.1,0.9,2,2,2c0.1,0,0.3,0,0.4,0c0.2,0.8,0.7,1.5,1.5,1.8
			c0.2,0.1,0.5,0.1,0.7,0.1s0.3,0,0.5-0.1c0.2,0.4,0.5,0.9,1.3,1.2c0.3,0.1,0.5,0.2,0.8,0.2c0.2,0,0.4,0,0.6-0.1
			c0.4,0.9,1.2,1.5,2.2,1.5c0.6,0,1.3-0.3,1.7-0.7c0.4,0.2,1.2,0.6,2,0.6c0.1,0,0.2,0,0.3,0c0.8-0.1,1.2-0.4,1.4-0.7l0.1-0.1
			c0.2,0.1,0.4,0.1,0.7,0.1c0.5,0,0.9-0.2,1.3-0.5c0.4-0.3,0.7-0.8,0.8-1.1l0,0c0.1,0,0.3,0,0.4,0c0.5,0,0.9-0.1,1.4-0.4
			c0.8-0.6,1-1.3,1-1.7c0.1,0,0.3,0,0.4,0c0.4,0,0.9-0.1,1.3-0.4c0.5-0.3,0.8-0.8,0.9-1.4c0-0.4-0.1-0.8-0.3-1.2
			c1.4-0.6,4.6-1.8,8.4-2.6c0-0.3-0.1-0.6-0.1-0.9C36.6,13.3,33.2,14.8,32.3,15.1z M19.5,22.5c-0.9,0-1.6-0.7-1.6-1.6
			c0-0.1,0-0.3-0.2-0.3c-0.1,0-0.1,0-0.2,0.1c-0.2,0.2-0.4,0.4-0.8,0.4c-0.2,0-0.3,0-0.5-0.1c-0.9-0.4-1-1-0.9-1.3
			c0-0.1,0-0.1,0-0.2l-0.1-0.1h-0.1c0,0-0.1,0-0.2,0.1c-0.3,0.2-0.5,0.3-0.8,0.3c-0.1,0-0.3,0-0.4-0.1c-1.2-0.5-1.1-1.6-1.1-2
			c0-0.1,0-0.1-0.1-0.2l-0.1-0.1l-0.1,0.1c-0.2,0.4-0.5,0.5-0.8,0.5c-0.7,0-1.3-0.6-1.3-1.3c0-0.7,0.6-1.3,1.3-1.3
			c0.6,0,1.2,0.5,1.3,1.1v0.3l0.2-0.3c0,0,0.5-0.8,1.5-0.8c0.2,0,0.4,0,0.6,0.1C15.9,16,16,16.7,16,17c0,0.2,0.1,0.2,0.2,0.2
			s0.1,0,0.1-0.1c0.1-0.1,0.5-0.4,0.9-0.4c0.2,0,0.5,0.1,0.7,0.2c1.2,0.5,0.7,2.1,0.7,2.1c-0.1,0.3-0.1,0.4,0,0.4l0,0l0,0
			c0.1,0,0.1,0,0.2-0.1c0.2-0.1,0.4-0.1,0.6-0.1l0,0c0.9,0,1.7,0.8,1.7,1.7C21.2,21.8,20.4,22.5,19.5,22.5z"/>
	</g>
	<g>
		<path class="st0" d="M113.9,5c-0.8-1-1.9-1.4-3.5-1.4c-1.5,0-2.7,0.5-3.5,1.4c-0.8,1-1.1,2.1-1.1,3.4s0.4,2.5,1.1,3.4
			c0.8,0.9,1.9,1.4,3.5,1.4c1.5,0,2.7-0.5,3.5-1.4s1.1-2.1,1.1-3.4S114.6,6,113.9,5z M112,10.5c-0.4,0.5-0.9,0.7-1.6,0.7
			s-1.2-0.2-1.6-0.7s-0.6-1.2-0.6-2.1c0-0.9,0.2-1.6,0.6-2.1s0.9-0.7,1.6-0.7s1.2,0.2,1.6,0.7s0.6,1.2,0.6,2.1
			C112.5,9.3,112.3,10,112,10.5z"/>
		<path class="st0" d="M94.4,4.2c-0.8-0.4-1.7-0.6-2.6-0.6c-1.5,0-2.6,0.4-3.2,1.2C88.2,5.3,88,6,87.9,6.7h2.3
			c0.1-0.3,0.2-0.6,0.3-0.8c0.2-0.3,0.6-0.4,1.2-0.4c0.5,0,0.9,0.1,1.1,0.2c0.3,0.1,0.4,0.4,0.4,0.8c0,0.3-0.2,0.5-0.5,0.7
			c-0.2,0.1-0.5,0.2-0.9,0.2L91,7.5c-0.9,0.1-1.6,0.3-2.1,0.6c-0.9,0.5-1.3,1.3-1.3,2.4c0,0.9,0.3,1.5,0.8,2s1.2,0.7,2,0.7
			c5.2,0.2,5.1-2.7,5.1-3.3V6.4C95.6,5.4,95.2,4.6,94.4,4.2z M93.2,9.4c0,0.8-0.2,1.3-0.7,1.6c-0.4,0.3-0.9,0.4-1.4,0.4
			c-0.3,0-0.6-0.1-0.8-0.3c-0.2-0.2-0.3-0.5-0.3-0.9c0-0.5,0.2-0.8,0.6-1c0.2-0.1,0.6-0.2,1.1-0.3l0.5-0.1c0.3-0.1,0.5-0.1,0.6-0.2
			c0.2-0.1,0.3-0.1,0.5-0.2L93.2,9.4L93.2,9.4z"/>
		<path class="st0" d="M82.7,5.7c0.6,0,1,0.2,1.3,0.5c0.2,0.3,0.3,0.6,0.4,0.9h2.5c-0.1-1.3-0.6-2.2-1.3-2.7
			c-0.8-0.5-1.7-0.8-2.9-0.8c-1.4,0-2.5,0.4-3.3,1.3c-0.9,0.9-1.3,2.1-1.3,3.7c0,1.4,0.4,2.5,1.1,3.3c0.7,0.9,1.8,1.3,3.4,1.3
			c1.5,0,2.7-0.5,3.5-1.5c0.5-0.6,0.8-1.3,0.8-2h-2.5c-0.1,0.5-0.2,0.9-0.4,1.2c-0.2,0.3-0.7,0.4-1.2,0.4c-0.8,0-1.4-0.4-1.7-1.1
			c-0.2-0.4-0.2-0.9-0.2-1.6c0-0.7,0.1-1.2,0.2-1.7C81.3,6,81.8,5.7,82.7,5.7z"/>
		<path class="st0" d="M77.4,3.7c-5.2,0-4.9,4.6-4.9,4.6V13h2.4V8.6c0-0.7,0.1-1.3,0.3-1.6c0.3-0.6,0.9-1,1.9-1c0.1,0,0.2,0,0.3,0
			c0.1,0,0.2,0,0.4,0V3.7c-0.1,0-0.2,0-0.2,0C77.5,3.7,77.5,3.7,77.4,3.7z"/>
		<path class="st0" d="M68.7,10.5c-0.1,0.1-0.2,0.3-0.3,0.4c-0.3,0.3-0.8,0.4-1.3,0.4s-0.9-0.1-1.3-0.3c-0.6-0.4-0.9-1-1-1.9h6.6
			c0-0.8,0-1.4-0.1-1.8C71.2,6.6,71,6,70.6,5.4c-0.4-0.6-0.9-1.1-1.6-1.3c-0.6-0.3-1.3-0.4-2.1-0.4c-1.3,0-2.4,0.4-3.2,1.2
			c-0.8,0.8-1.2,2-1.2,3.6c0,1.7,0.5,2.9,1.4,3.6c0.9,0.7,2,1.1,3.2,1.1c1.5,0,2.6-0.4,3.4-1.3c0.4-0.5,0.7-0.9,0.8-1.4
			C71.3,10.5,68.7,10.5,68.7,10.5z M65.5,6.1c0.3-0.3,0.8-0.5,1.4-0.5s1,0.2,1.4,0.5s0.6,0.8,0.6,1.4h-4.1C65,6.9,65.2,6.5,65.5,6.1
			z"/>
		<g>
			<path class="st0" d="M61.5,13h-2.2V7.5c0-0.5-0.2-1.7-1.6-1.7c-1,0-1.6,0.7-1.6,1.7V13h-2.2V7.5c0-0.5-0.1-1.7-1.6-1.7
				c-1,0-1.6,0.7-1.6,1.7V13h-2.2V7.6c0-2.3,1.5-4,3.8-4c1.1,0,2.1,0.5,2.7,1.3c0.6-0.8,1.6-1.3,2.7-1.3c2.4,0,3.8,1.6,3.8,4
				C61.5,7.6,61.5,13,61.5,13z"/>
		</g>
		<path class="st0" d="M105.1,0.8c0,0-2.4-0.3-2.4,1.7V5c-0.3-0.4-0.6-0.8-1-1s-0.9-0.4-1.5-0.4c-1.2,0-2.1,0.4-2.8,1.3
			c-0.7,0.9-1.1,2.2-1.1,3.7c0,1.3,0.4,2.4,1.1,3.3c0.7,0.8,2.1,1.2,3.4,1.2c4.4,0,4.3-3.7,4.3-3.7V0.8z M102.2,10.5
			c-0.3,0.5-0.9,0.7-1.5,0.7c-0.7,0-1.2-0.2-1.5-0.7s-0.5-1.2-0.5-2.1c0-0.8,0.2-1.4,0.5-1.9s0.8-0.8,1.5-0.8c0.5,0,0.8,0.1,1.2,0.4
			c0.6,0.5,0.8,1.3,0.8,2.4C102.8,9.4,102.6,10,102.2,10.5z"/>
	</g>
	<g>
		<g>
			<path class="st1" d="M65.9,28c0,0.3-0.1,0.6-0.4,0.8c-0.2,0.2-0.5,0.3-0.8,0.3h-1.2V21c0-1.6,0.5-2.6,1.4-3.3
				c0.6-0.4,1.5-0.9,3.1-0.9c1.1,0,2.4,0.4,3.1,1.3c0.8,1,1.1,2,1.1,3.4s-0.3,2.6-1,3.5s-1.6,1.3-2.7,1.3c-0.6,0-1.1-0.1-1.5-0.3
				c-0.5-0.2-0.8-0.6-1.1-1.1V28z M69.9,21.6c0-0.9-0.2-1.6-0.5-2.1s-0.8-0.7-1.5-0.7c-0.6,0-1.1,0.2-1.5,0.7
				c-0.3,0.4-0.5,1.1-0.5,2.1c0,0.9,0.2,1.5,0.5,2s0.8,0.7,1.5,0.7c0.6,0,1.1-0.2,1.4-0.7C69.7,23.1,69.9,22.4,69.9,21.6"/>
			<path class="st1" d="M88,25.6V25c-0.4,0.6-1,1-1.7,1.2s-1.4,0.1-2.1-0.2c-0.7-0.3-1.3-0.8-1.8-1.5s-0.7-1.7-0.7-2.9
				c0-1.4,0.3-2.6,1-3.5s1.7-1.3,3.1-1.3s2.2,0.3,3,0.9c0.9,0.7,1.4,1.7,1.4,3.3v4.8c0,1.5-1.1,4.4-4.4,4.2c-2.1-0.2-3.3-1-3.9-3
				h2.6c0.2,0.3,0.5,0.6,0.8,0.7c0.4,0.2,0.8,0.2,1.1,0.1c0.4-0.1,0.7-0.3,1-0.7C87.8,26.9,87.9,26.3,88,25.6 M84.1,21.6
				c0,1.6,0.5,2.5,1.4,2.6c0.9,0.2,1.6,0,2-0.6c0.2-0.3,0.4-0.6,0.4-1.2c0.1-0.5,0.1-1.1,0-1.6s-0.3-1-0.6-1.4
				C87,19,86.6,18.8,86,18.8c-0.8,0-1.3,0.3-1.6,0.9C84.2,20.2,84.1,20.9,84.1,21.6"/>
			<path class="st1" d="M79.7,17.4c-0.8-0.4-1.7-0.6-2.6-0.6c-1.5,0-2.6,0.4-3.2,1.2c-0.4,0.5-0.6,1.2-0.7,1.9h2.3
				c0.1-0.3,0.2-0.6,0.3-0.8c0.2-0.3,0.6-0.4,1.2-0.4c0.5,0,0.9,0.1,1.1,0.2c0.3,0.1,0.4,0.4,0.4,0.8c0,0.3-0.2,0.5-0.5,0.7
				c-0.2,0.1-0.5,0.2-0.9,0.2l-0.8,0.1c-0.9,0.1-1.6,0.3-2.1,0.6c-0.9,0.5-1.3,1.3-1.3,2.4c0,0.9,0.3,1.5,0.8,2s1.2,0.7,2,0.7
				c5.2,0.2,5.1-2.7,5.1-3.3v-3.4C80.9,18.6,80.5,17.8,79.7,17.4 M78.5,22.6c0,0.8-0.2,1.3-0.7,1.6c-0.4,0.3-0.9,0.4-1.4,0.4
				c-0.3,0-0.6-0.1-0.8-0.3c-0.2-0.2-0.3-0.5-0.3-0.9c0-0.5,0.2-0.8,0.6-1c0.2-0.1,0.6-0.2,1.1-0.3l0.5-0.1c0.3-0.1,0.5-0.1,0.6-0.2
				c0.2-0.1,0.3-0.1,0.5-0.2L78.5,22.6L78.5,22.6z"/>
			<path class="st1" d="M99.3,18.2c-0.8-1-1.9-1.4-3.5-1.4c-1.5,0-2.7,0.5-3.5,1.4c-0.8,1-1.1,2.1-1.1,3.4s0.4,2.4,1.1,3.4
				c0.8,0.9,1.9,1.4,3.5,1.4c1.5,0,2.7-0.5,3.5-1.4s1.1-2.1,1.1-3.4C100.4,20.2,100,19.1,99.3,18.2 M97.4,23.6
				c-0.4,0.5-0.9,0.7-1.6,0.7s-1.2-0.2-1.6-0.7s-0.6-1.2-0.6-2.1s0.2-1.6,0.6-2.1s0.9-0.7,1.6-0.7s1.2,0.2,1.6,0.7s0.6,1.2,0.6,2.1
				C97.9,22.4,97.8,23.1,97.4,23.6"/>
		</g>
	</g>
</g>
</svg>
