<?xml version="1.0" encoding="utf-8"?>
<!-- Generator: Adobe Illustrator 26.0.0, SVG Export Plug-In . SVG Version: 6.00 Build 0)  -->
<svg version="1.1" id="Layer_1" xmlns="http://www.w3.org/2000/svg" xmlns:xlink="http://www.w3.org/1999/xlink" x="0px" y="0px"
	 width="63.2px" height="29.2px" viewBox="0 0 63.2 29.2" style="enable-background:new 0 0 63.2 29.2;" xml:space="preserve">
<style type="text/css">
	.st0{fill-rule:evenodd;clip-rule:evenodd;fill:#EEA42D;}
	.st1{fill-rule:evenodd;clip-rule:evenodd;fill:#FFFFFF;}
	.st2{fill-rule:evenodd;clip-rule:evenodd;fill:#EC1C24;}
</style>
<g>
	<path class="st0" d="M0,2c0-1.1,0.9-2,2-2h59.2c1.1,0,2,0.9,2,2v25.2c0,1.1-0.9,2-2,2H2c-1.1,0-2-0.9-2-2L0,2L0,2z"/>
	<polygon class="st1" points="0,2.9 63.2,2.9 63.2,26.3 0,26.3 	"/>
	<path class="st2" d="M53.5,9c-2.9,0-5.2,2.4-5.2,5.2c0,2.9,2.4,5.2,5.2,5.2c2.9,0,5.2-2.4,5.2-5.2C58.8,11.3,56.4,9,53.5,9L53.5,9z
		"/>
	<path class="st2" d="M10.3,9c-2.9,0-5.2,2.4-5.2,5.2c0,2.9,2.4,5.2,5.2,5.2c2.9,0,5.2-2.4,5.2-5.2C15.6,11.3,13.2,9,10.3,9L10.3,9z
		"/>
	<path class="st2" d="M53.1,4.4c-4.9-0.1-7.1,3-10.4,6.8l-3.1,3.6l4.9,5.9c1.2,1.8-1.1,3.6-2.5,2l-4.6-5.5l-4.5,5.2
		c-1.4,1.6-3.6-0.2-2.4-2l4.8-5.6L32.2,11l2-2.5l3.2,3.9l2.8-3.2c1.4-1.6,2.8-3.7,4.6-4.8H0v20.5h10.5c4.9,0,7.1-2.9,10.3-6.8l3-3.7
		l-5.1-5.8c-1.2-1.8,1-3.6,2.4-2l4.7,5.4l4.3-5.3c1.4-1.7,3.6,0.1,2.5,1.9l-4.7,5.7l3.3,3.7l-2.1,2.4l-3.2-3.7L23.2,20
		c-1.3,1.6-2.7,3.7-4.4,4.8h44.4V4.4H53.1L53.1,4.4z M18.6,14.2c0,4.6-3.7,8.3-8.3,8.3S2,18.8,2,14.2s3.7-8.3,8.3-8.3
		C14.9,5.9,18.6,9.6,18.6,14.2L18.6,14.2z M53.5,22.5c-4.6,0-8.3-3.7-8.3-8.3s3.7-8.3,8.3-8.3c4.6,0,8.3,3.7,8.3,8.3
		C61.8,18.8,58.1,22.5,53.5,22.5L53.5,22.5z"/>
</g>
</svg>
