<?xml version="1.0" encoding="utf-8"?>
<!-- Generator: Adobe Illustrator 26.0.0, SVG Export Plug-In . SVG Version: 6.00 Build 0)  -->
<svg version="1.1" id="Layer_1" xmlns="http://www.w3.org/2000/svg" xmlns:xlink="http://www.w3.org/1999/xlink" x="0px" y="0px"
	 viewBox="0 0 124 32" style="enable-background:new 0 0 124 32;" xml:space="preserve">
<style type="text/css">
	.st0{fill:#000F9F;}
	.st1{fill:#00ADEE;}
	.st2{fill:#FFFFFF;}
</style>
<g>
	<g>
		<path class="st0" d="M46.6,14.8C46.6,7.2,37.2,1,25.6,1C13.9,1,4.5,7.2,4.5,14.8c0,0.2,0,0.7,0,0.8c0,8,8.2,14.6,21.1,14.6
			c12.9,0,21.1-6.5,21.1-14.6C46.6,15.3,46.6,15.2,46.6,14.8z"/>
		<path class="st1" d="M45.8,14.8c0,7.2-9.1,13-20.2,13c-11.2,0-20.2-5.8-20.2-13c0-7.2,9.1-13,20.2-13C36.7,1.8,45.8,7.6,45.8,14.8
			z"/>
		<g>
			<path class="st2" d="M18.8,10.7c0,0-0.2,0.2-0.1,0.4c0.3,0.4,1.3,0.6,2.3,0.4c0.6-0.1,1.4-0.7,2.1-1.3c0.8-0.6,1.6-1.3,2.4-1.5
				c0.8-0.3,1.4-0.2,1.7,0c0.4,0.1,0.9,0.4,1.6,0.9c1.4,1,7,5.9,7.9,6.7c0.8-0.4,4.2-1.8,8.9-2.9c-0.4-2.5-1.9-4.8-4.2-6.6
				c-3.2,1.3-7.1,2.1-11,0.2c0,0-2.1-1-4.1-0.9c-3,0.1-4.4,1.4-5.8,2.8L18.8,10.7z"/>
			<path class="st2" d="M36.6,16.8c-0.1-0.1-6.5-5.7-8-6.8c-0.9-0.6-1.3-0.8-1.8-0.9c-0.3,0-0.6,0-0.9,0.1c-0.7,0.2-1.6,0.8-2.4,1.4
				c-0.8,0.7-1.6,1.3-2.3,1.4c-0.9,0.2-2,0-2.6-0.4c-0.2-0.1-0.4-0.3-0.4-0.5c-0.2-0.4,0.2-0.8,0.2-0.8l1.8-1.9
				c0.2-0.2,0.4-0.4,0.6-0.6c-0.6,0.1-1.1,0.2-1.6,0.4c-0.6,0.2-1.3,0.4-1.9,0.4c-0.3,0-1.7-0.2-1.9-0.3c-1.6-0.4-3-0.9-5.2-1.9
				C7.7,8.2,6,10.6,5.5,13.2c0.4,0.1,1,0.3,1.2,0.3c5.8,1.3,7.5,2.6,7.9,2.9c0.4-0.4,0.9-0.6,1.4-0.6c0.6,0,1.2,0.3,1.6,0.8
				c0.3-0.3,0.8-0.5,1.4-0.5c0.3,0,0.5,0,0.8,0.1c0.6,0.2,1,0.7,1.2,1c0.2-0.1,0.5-0.2,0.8-0.2c0.3,0,0.6,0.1,1,0.2
				c1.1,0.5,1.2,1.5,1.1,2.3c0.1,0,0.2,0,0.2,0c1.3,0,2.3,1,2.3,2.3c0,0.4-0.1,0.8-0.3,1.1c0.3,0.2,1.2,0.6,2,0.5
				c0.6-0.1,0.8-0.3,0.9-0.4C29,23,29,22.9,29,22.9l-1.6-1.8c0,0-0.3-0.3-0.2-0.4c0.1-0.1,0.3,0,0.4,0.1c0.8,0.7,1.8,1.7,1.8,1.7
				c0,0,0.1,0.1,0.5,0.2c0.3,0.1,0.9,0,1.3-0.3c0.1-0.1,0.2-0.2,0.3-0.3c0,0,0,0,0,0c0.4-0.5,0-1.1,0-1.1L29.5,19
				c0,0-0.3-0.3-0.2-0.4c0.1-0.1,0.3,0,0.4,0.1c0.6,0.5,1.4,1.4,2.3,2.1c0.2,0.1,0.9,0.6,1.8-0.1c0.6-0.4,0.7-0.8,0.7-1.2
				c0-0.5-0.4-0.8-0.4-0.8l-2.6-2.6c0,0-0.3-0.2-0.2-0.4c0.1-0.1,0.3,0,0.4,0.1c0.8,0.7,3.1,2.7,3.1,2.7c0,0,0.8,0.6,1.8,0
				c0.3-0.2,0.6-0.5,0.6-0.9C37,17.2,36.6,16.8,36.6,16.8z"/>
			<path class="st2" d="M24,20.1c-0.4,0-0.8,0.2-0.9,0.2c0,0,0-0.2,0.1-0.3c0-0.1,0.6-1.7-0.7-2.2c-1-0.4-1.6,0.1-1.8,0.3
				c-0.1,0.1-0.1,0.1-0.1,0c0-0.3-0.1-1.1-1-1.3c-1.2-0.4-2,0.5-2.2,0.8c-0.1-0.7-0.7-1.2-1.4-1.2c-0.8,0-1.4,0.6-1.4,1.4
				c0,0.8,0.6,1.4,1.4,1.4c0.4,0,0.7-0.2,1-0.4c0,0,0,0,0,0c-0.1,0.3-0.2,1.6,1.2,2.1c0.5,0.2,1,0.1,1.4-0.2c0.1-0.1,0.1,0,0.1,0.1
				c0,0.3,0,1,1,1.4c0.7,0.3,1.2,0,1.5-0.3c0.1-0.1,0.2-0.1,0.2,0.1c0,0.9,0.8,1.7,1.8,1.7c1,0,1.8-0.8,1.8-1.8
				C25.8,20.9,25,20.1,24,20.1z"/>
		</g>
		<path class="st0" d="M36.8,16.1c-2-1.7-6.6-5.8-7.9-6.7c-0.7-0.5-1.2-0.8-1.6-0.9c-0.2-0.1-0.5-0.1-0.8-0.1c-0.3,0-0.7,0.1-1,0.2
			c-0.8,0.3-1.6,0.9-2.4,1.5l0,0c-0.7,0.6-1.5,1.2-2,1.3c-0.2,0.1-0.5,0.1-0.8,0.1c-0.6,0-1.2-0.2-1.4-0.5c0,0,0-0.1,0.1-0.2l0,0
			l1.8-1.9c1.4-1.4,2.7-2.7,5.7-2.7c0,0,0.1,0,0.1,0c1.9,0,3.7,0.8,3.9,0.9c1.7,0.9,3.5,1.3,5.4,1.3c1.9,0,3.8-0.5,5.9-1.4
			c-0.2-0.2-0.5-0.4-0.7-0.6c-1.8,0.8-3.5,1.2-5.2,1.2c-1.7,0-3.4-0.4-5-1.2c-0.1,0-2.1-1-4.3-1c-0.1,0-0.1,0-0.2,0
			c-2.5,0.1-3.9,1-4.9,1.7c-0.9,0-1.7,0.2-2.4,0.4c-0.6,0.2-1.2,0.3-1.7,0.3c-0.2,0-0.6,0-0.7,0C16,7.8,13,7,10.5,6.1
			C10.2,6.3,10,6.5,9.8,6.7c2.6,1.1,5.7,1.9,6.7,1.9c0.3,0,0.6,0,0.9,0c0.7,0,1.3-0.2,1.9-0.4C19.6,8.2,20,8.1,20.5,8
			c-0.1,0.1-0.2,0.2-0.3,0.3l-1.8,1.9c-0.1,0.1-0.4,0.5-0.2,1c0.1,0.2,0.2,0.4,0.5,0.5c0.4,0.3,1.2,0.5,1.9,0.5c0.3,0,0.5,0,0.8-0.1
			c0.7-0.2,1.5-0.8,2.4-1.5c0.7-0.5,1.6-1.2,2.3-1.4c0.2-0.1,0.4-0.1,0.6-0.1c0.1,0,0.1,0,0.2,0c0.5,0.1,0.9,0.2,1.8,0.8
			c1.5,1.1,8,6.8,8,6.8c0,0,0.4,0.4,0.4,1c0,0.3-0.2,0.6-0.5,0.8c-0.3,0.2-0.6,0.3-0.9,0.3c-0.4,0-0.7-0.2-0.8-0.2
			c0,0-2.2-2.1-3.1-2.7c-0.1-0.1-0.3-0.2-0.4-0.2c-0.1,0-0.1,0-0.2,0.1c-0.1,0.2,0,0.4,0.2,0.5l2.6,2.6c0,0,0.3,0.3,0.4,0.7
			c0,0.4-0.2,0.8-0.6,1.1c-0.3,0.2-0.6,0.3-0.9,0.3c-0.4,0-0.7-0.2-0.7-0.2l-0.4-0.4c-0.7-0.7-1.4-1.4-1.9-1.8
			c-0.1-0.1-0.3-0.2-0.4-0.2c-0.1,0-0.1,0-0.2,0.1c-0.1,0.1-0.1,0.2,0,0.4c0.1,0.1,0.1,0.1,0.1,0.1l1.9,2.1c0,0,0.4,0.5,0,0.9
			l-0.1,0.1c-0.1,0.1-0.1,0.1-0.2,0.2c-0.3,0.3-0.8,0.3-0.9,0.3c-0.1,0-0.2,0-0.3,0c-0.2,0-0.3-0.1-0.4-0.2l0,0
			c-0.1-0.1-1.1-1.1-1.8-1.7c-0.1-0.1-0.2-0.2-0.4-0.2c-0.1,0-0.1,0-0.2,0.1c-0.2,0.2,0.1,0.4,0.2,0.5l1.6,1.8c0,0,0,0.1-0.1,0.1
			c-0.1,0.1-0.3,0.3-0.8,0.3c-0.1,0-0.1,0-0.2,0c-0.6,0-1.2-0.3-1.6-0.5c0.2-0.3,0.2-0.7,0.2-1c0-1.3-1.1-2.4-2.4-2.4
			c0,0-0.1,0-0.1,0c0-0.6,0-1.8-1.2-2.3c-0.3-0.1-0.7-0.2-1-0.2c-0.3,0-0.5,0-0.7,0.1c-0.2-0.5-0.7-0.8-1.2-1
			C19.5,16,19.2,16,18.9,16c-0.5,0-0.9,0.1-1.3,0.4c-0.4-0.5-1-0.8-1.6-0.8c-0.5,0-1.1,0.2-1.4,0.6c-0.5-0.4-2.5-1.7-7.8-2.9
			c-0.3-0.1-0.9-0.2-1.2-0.3c-0.1,0.3-0.1,0.6-0.1,0.9c0,0,1,0.2,1.2,0.3c5.5,1.2,7.3,2.5,7.6,2.7c-0.1,0.2-0.2,0.5-0.2,0.8
			c0,1.1,0.9,2,2,2c0.1,0,0.3,0,0.4,0c0.2,0.8,0.7,1.5,1.5,1.8c0.2,0.1,0.5,0.1,0.7,0.1c0.2,0,0.3,0,0.5-0.1
			c0.2,0.4,0.5,0.9,1.3,1.2c0.3,0.1,0.5,0.2,0.8,0.2c0.2,0,0.4,0,0.6-0.1c0.4,0.9,1.2,1.5,2.2,1.5c0.6,0,1.3-0.3,1.7-0.7
			c0.4,0.2,1.2,0.6,2,0.6c0.1,0,0.2,0,0.3,0c0.8-0.1,1.2-0.4,1.4-0.7c0,0,0.1-0.1,0.1-0.1c0.2,0.1,0.4,0.1,0.7,0.1
			c0.5,0,0.9-0.2,1.3-0.5c0.4-0.3,0.7-0.8,0.8-1.1c0,0,0,0,0,0c0.1,0,0.3,0,0.4,0c0.5,0,0.9-0.1,1.4-0.4c0.8-0.6,1-1.3,1-1.7
			c0.1,0,0.3,0,0.4,0c0.4,0,0.9-0.1,1.3-0.4c0.5-0.3,0.8-0.8,0.9-1.4c0-0.4-0.1-0.8-0.3-1.2c1.4-0.6,4.6-1.8,8.4-2.6
			c0-0.3-0.1-0.6-0.1-0.9C41.1,14.3,37.7,15.8,36.8,16.1z M24,23.5c-0.9,0-1.6-0.7-1.6-1.6c0-0.1,0-0.3-0.2-0.3
			c-0.1,0-0.1,0-0.2,0.1c-0.2,0.2-0.4,0.4-0.8,0.4c-0.2,0-0.3,0-0.5-0.1c-0.9-0.4-1-1-0.9-1.3c0-0.1,0-0.1,0-0.2l-0.1-0.1h-0.1
			c0,0-0.1,0-0.2,0.1c-0.3,0.2-0.5,0.3-0.8,0.3c-0.1,0-0.3,0-0.4-0.1c-1.2-0.5-1.1-1.6-1.1-2c0-0.1,0-0.1-0.1-0.2l-0.1-0.1l-0.1,0.1
			C16.6,18.9,16.3,19,16,19c-0.7,0-1.3-0.6-1.3-1.3c0-0.7,0.6-1.3,1.3-1.3c0.6,0,1.2,0.5,1.3,1.1l0,0.3l0.2-0.3c0,0,0.5-0.8,1.5-0.8
			c0.2,0,0.4,0,0.6,0.1c0.8,0.2,0.9,0.9,0.9,1.2c0,0.2,0.1,0.2,0.2,0.2c0.1,0,0.1,0,0.1-0.1c0.1-0.1,0.5-0.4,0.9-0.4
			c0.2,0,0.5,0.1,0.7,0.2c1.2,0.5,0.7,2.1,0.7,2.1c-0.1,0.3-0.1,0.4,0,0.4l0,0h0c0.1,0,0.1,0,0.2-0.1c0.2-0.1,0.4-0.1,0.6-0.1h0
			c0.9,0,1.7,0.8,1.7,1.7C25.7,22.8,24.9,23.5,24,23.5z"/>
	</g>
	<g>
		<path class="st0" d="M118.4,6c-0.8-1-1.9-1.4-3.5-1.4c-1.5,0-2.7,0.5-3.5,1.4c-0.8,1-1.1,2.1-1.1,3.4c0,1.3,0.4,2.5,1.1,3.4
			c0.8,0.9,1.9,1.4,3.5,1.4c1.5,0,2.7-0.5,3.5-1.4c0.8-0.9,1.1-2.1,1.1-3.4C119.5,8.1,119.1,7,118.4,6z M116.5,11.5
			c-0.4,0.5-0.9,0.7-1.6,0.7c-0.7,0-1.2-0.2-1.6-0.7c-0.4-0.5-0.6-1.2-0.6-2.1c0-0.9,0.2-1.6,0.6-2.1c0.4-0.5,0.9-0.7,1.6-0.7
			c0.7,0,1.2,0.2,1.6,0.7c0.4,0.5,0.6,1.2,0.6,2.1C117,10.3,116.8,11,116.5,11.5z"/>
		<path class="st0" d="M98.9,5.2c-0.8-0.4-1.7-0.6-2.6-0.6c-1.5,0-2.6,0.4-3.2,1.2c-0.4,0.5-0.6,1.2-0.7,1.9h2.3
			c0.1-0.3,0.2-0.6,0.3-0.8c0.2-0.3,0.6-0.4,1.2-0.4c0.5,0,0.9,0.1,1.1,0.2c0.3,0.1,0.4,0.4,0.4,0.8c0,0.3-0.2,0.5-0.5,0.7
			c-0.2,0.1-0.5,0.2-0.9,0.2l-0.8,0.1c-0.9,0.1-1.6,0.3-2.1,0.6c-0.9,0.5-1.3,1.3-1.3,2.4c0,0.9,0.3,1.5,0.8,2
			c0.5,0.5,1.2,0.7,2,0.7c5.2,0.2,5.1-2.7,5.1-3.3V7.4C100.1,6.4,99.7,5.6,98.9,5.2z M97.7,10.4c0,0.8-0.2,1.3-0.7,1.6
			c-0.4,0.3-0.9,0.4-1.4,0.4c-0.3,0-0.6-0.1-0.8-0.3c-0.2-0.2-0.3-0.5-0.3-0.9c0-0.5,0.2-0.8,0.6-1c0.2-0.1,0.6-0.2,1.1-0.3l0.5-0.1
			c0.3-0.1,0.5-0.1,0.6-0.2c0.2-0.1,0.3-0.1,0.5-0.2V10.4z"/>
		<path class="st0" d="M87.2,6.7c0.6,0,1,0.2,1.3,0.5c0.2,0.3,0.3,0.6,0.4,0.9h2.5c-0.1-1.3-0.6-2.2-1.3-2.7
			c-0.8-0.5-1.7-0.8-2.9-0.8c-1.4,0-2.5,0.4-3.3,1.3C83,6.8,82.6,8,82.6,9.6c0,1.4,0.4,2.5,1.1,3.3c0.7,0.9,1.8,1.3,3.4,1.3
			c1.5,0,2.7-0.5,3.5-1.5c0.5-0.6,0.8-1.3,0.8-2h-2.5c-0.1,0.5-0.2,0.9-0.4,1.2c-0.2,0.3-0.7,0.4-1.2,0.4c-0.8,0-1.4-0.4-1.7-1.1
			c-0.2-0.4-0.2-0.9-0.2-1.6c0-0.7,0.1-1.2,0.2-1.7C85.8,7,86.3,6.7,87.2,6.7z"/>
		<path class="st0" d="M81.9,4.7c-5.2,0-4.9,4.6-4.9,4.6V14h2.4V9.6c0-0.7,0.1-1.3,0.3-1.6C80,7.4,80.6,7,81.6,7c0.1,0,0.2,0,0.3,0
			c0.1,0,0.2,0,0.4,0V4.7c-0.1,0-0.2,0-0.2,0C82,4.7,82,4.7,81.9,4.7z"/>
		<path class="st0" d="M73.2,11.5c-0.1,0.1-0.2,0.3-0.3,0.4c-0.3,0.3-0.8,0.4-1.3,0.4c-0.5,0-0.9-0.1-1.3-0.3c-0.6-0.4-0.9-1-1-1.9
			h6.6c0-0.8,0-1.4-0.1-1.8c-0.1-0.7-0.3-1.3-0.7-1.9c-0.4-0.6-0.9-1.1-1.6-1.3c-0.6-0.3-1.3-0.4-2.1-0.4c-1.3,0-2.4,0.4-3.2,1.2
			c-0.8,0.8-1.2,2-1.2,3.6c0,1.7,0.5,2.9,1.4,3.6c0.9,0.7,2,1.1,3.2,1.1c1.5,0,2.6-0.4,3.4-1.3c0.4-0.5,0.7-0.9,0.8-1.4H73.2z
			 M70,7.1c0.3-0.3,0.8-0.5,1.4-0.5c0.6,0,1,0.2,1.4,0.5c0.4,0.3,0.6,0.8,0.6,1.4h-4.1C69.5,7.9,69.7,7.5,70,7.1z"/>
		<g>
			<path class="st0" d="M66,14h-2.2V8.5c0-0.5-0.2-1.7-1.6-1.7c-1,0-1.6,0.7-1.6,1.7V14h-2.2V8.5c0-0.5-0.1-1.7-1.6-1.7
				c-1,0-1.6,0.7-1.6,1.7V14h-2.2V8.6c0-2.3,1.5-4,3.8-4c1.1,0,2.1,0.5,2.7,1.3c0.6-0.8,1.6-1.3,2.7-1.3c2.4,0,3.8,1.6,3.8,4V14z"/>
		</g>
		<path class="st0" d="M109.6,1.8c0,0-2.4-0.3-2.4,1.7l0,2.5c-0.3-0.4-0.6-0.8-1-1c-0.4-0.2-0.9-0.4-1.5-0.4c-1.2,0-2.1,0.4-2.8,1.3
			c-0.7,0.9-1.1,2.2-1.1,3.7c0,1.3,0.4,2.4,1.1,3.3c0.7,0.8,2.1,1.2,3.4,1.2c4.4,0,4.3-3.7,4.3-3.7L109.6,1.8z M106.7,11.5
			c-0.3,0.5-0.9,0.7-1.5,0.7c-0.7,0-1.2-0.2-1.5-0.7c-0.3-0.5-0.5-1.2-0.5-2.1c0-0.8,0.2-1.4,0.5-1.9c0.3-0.5,0.8-0.8,1.5-0.8
			c0.5,0,0.8,0.1,1.2,0.4c0.6,0.5,0.8,1.3,0.8,2.4C107.3,10.4,107.1,11,106.7,11.5z"/>
	</g>
	<g>
		<g>
			<path class="st1" d="M70.4,29c0,0.3-0.1,0.6-0.4,0.8c-0.2,0.2-0.5,0.3-0.8,0.3H68V22c0-1.6,0.5-2.6,1.4-3.3
				c0.6-0.4,1.5-0.9,3.1-0.9c1.1,0,2.4,0.4,3.1,1.3c0.8,1,1.1,2,1.1,3.4c0,1.4-0.3,2.6-1,3.5c-0.7,0.9-1.6,1.3-2.7,1.3
				c-0.6,0-1.1-0.1-1.5-0.3c-0.5-0.2-0.8-0.6-1.1-1.1V29z M74.4,22.6c0-0.9-0.2-1.6-0.5-2.1c-0.3-0.5-0.8-0.7-1.5-0.7
				c-0.6,0-1.1,0.2-1.5,0.7c-0.3,0.4-0.5,1.1-0.5,2.1c0,0.9,0.2,1.5,0.5,2c0.3,0.5,0.8,0.7,1.5,0.7c0.6,0,1.1-0.2,1.4-0.7
				C74.2,24.1,74.4,23.4,74.4,22.6"/>
			<path class="st1" d="M92.5,26.6V26c-0.4,0.6-1,1-1.7,1.2c-0.7,0.2-1.4,0.1-2.1-0.2c-0.7-0.3-1.3-0.8-1.8-1.5
				c-0.5-0.7-0.7-1.7-0.7-2.9c0-1.4,0.3-2.6,1-3.5c0.7-0.9,1.7-1.3,3.1-1.3c1.4,0,2.2,0.3,3,0.9c0.9,0.7,1.4,1.7,1.4,3.3v4.8
				c0,1.5-1.1,4.4-4.4,4.2c-2.1-0.2-3.3-1-3.9-3H89c0.2,0.3,0.5,0.6,0.8,0.7c0.4,0.2,0.8,0.2,1.1,0.1c0.4-0.1,0.7-0.3,1-0.7
				C92.3,27.9,92.4,27.3,92.5,26.6 M88.6,22.6c0,1.6,0.5,2.5,1.4,2.6c0.9,0.2,1.6,0,2-0.6c0.2-0.3,0.4-0.6,0.4-1.2
				c0.1-0.5,0.1-1.1,0-1.6c-0.1-0.5-0.3-1-0.6-1.4c-0.3-0.4-0.7-0.6-1.3-0.6c-0.8,0-1.3,0.3-1.6,0.9C88.7,21.2,88.6,21.9,88.6,22.6"
				/>
			<path class="st1" d="M84.2,18.4c-0.8-0.4-1.7-0.6-2.6-0.6c-1.5,0-2.6,0.4-3.2,1.2c-0.4,0.5-0.6,1.2-0.7,1.9H80
				c0.1-0.3,0.2-0.6,0.3-0.8c0.2-0.3,0.6-0.4,1.2-0.4c0.5,0,0.9,0.1,1.1,0.2c0.3,0.1,0.4,0.4,0.4,0.8c0,0.3-0.2,0.5-0.5,0.7
				c-0.2,0.1-0.5,0.2-0.9,0.2l-0.8,0.1c-0.9,0.1-1.6,0.3-2.1,0.6c-0.9,0.5-1.3,1.3-1.3,2.4c0,0.9,0.3,1.5,0.8,2
				c0.5,0.5,1.2,0.7,2,0.7c5.2,0.2,5.1-2.7,5.1-3.3v-3.4C85.4,19.6,85,18.8,84.2,18.4 M83,23.6c0,0.8-0.2,1.3-0.7,1.6
				c-0.4,0.3-0.9,0.4-1.4,0.4c-0.3,0-0.6-0.1-0.8-0.3c-0.2-0.2-0.3-0.5-0.3-0.9c0-0.5,0.2-0.8,0.6-1c0.2-0.1,0.6-0.2,1.1-0.3
				l0.5-0.1c0.3-0.1,0.5-0.1,0.6-0.2c0.2-0.1,0.3-0.1,0.5-0.2V23.6z"/>
			<path class="st1" d="M103.8,19.2c-0.8-1-1.9-1.4-3.5-1.4c-1.5,0-2.7,0.5-3.5,1.4c-0.8,1-1.1,2.1-1.1,3.4c0,1.3,0.4,2.4,1.1,3.4
				c0.8,0.9,1.9,1.4,3.5,1.4c1.5,0,2.7-0.5,3.5-1.4c0.8-0.9,1.1-2.1,1.1-3.4C104.9,21.2,104.5,20.1,103.8,19.2 M101.9,24.6
				c-0.4,0.5-0.9,0.7-1.6,0.7s-1.2-0.2-1.6-0.7c-0.4-0.5-0.6-1.2-0.6-2.1c0-0.9,0.2-1.6,0.6-2.1c0.4-0.5,0.9-0.7,1.6-0.7
				s1.2,0.2,1.6,0.7c0.4,0.5,0.6,1.2,0.6,2.1C102.4,23.4,102.3,24.1,101.9,24.6"/>
		</g>
	</g>
</g>
</svg>
