<?xml version="1.0" encoding="utf-8"?>
<!-- Generator: Adobe Illustrator 26.0.0, SVG Export Plug-In . SVG Version: 6.00 Build 0)  -->
<svg version="1.1" id="Layer_1" xmlns="http://www.w3.org/2000/svg" xmlns:xlink="http://www.w3.org/1999/xlink" x="0px" y="0px"
	 viewBox="0 0 124 32" style="enable-background:new 0 0 124 32;" xml:space="preserve">
<style type="text/css">
	.st0{fill-rule:evenodd;clip-rule:evenodd;fill:#EEA42D;}
	.st1{fill-rule:evenodd;clip-rule:evenodd;fill:#FFFFFF;}
	.st2{fill-rule:evenodd;clip-rule:evenodd;fill:#EC1C24;}
</style>
<g>
	<path class="st0" d="M30.4,3c0-1.1,0.9-2,2-2h59.2c1.1,0,2,0.9,2,2v25.2c0,1.1-0.9,2-2,2H32.4c-1.1,0-2-0.9-2-2V3L30.4,3z"/>
	<polygon class="st1" points="30.4,3.9 93.6,3.9 93.6,27.3 30.4,27.3 30.4,3.9 	"/>
	<path class="st2" d="M83.9,10c-2.9,0-5.2,2.4-5.2,5.2c0,2.9,2.4,5.2,5.2,5.2c2.9,0,5.2-2.4,5.2-5.2C89.2,12.3,86.8,10,83.9,10
		L83.9,10z"/>
	<path class="st2" d="M40.7,10c-2.9,0-5.2,2.4-5.2,5.2c0,2.9,2.4,5.2,5.2,5.2c2.9,0,5.2-2.4,5.2-5.2C46,12.3,43.6,10,40.7,10
		L40.7,10z"/>
	<path class="st2" d="M83.5,5.4c-4.9-0.1-7.1,3-10.4,6.8L70,15.8l4.9,5.9c1.2,1.8-1.1,3.6-2.5,2l-4.6-5.5l-4.5,5.2
		c-1.4,1.6-3.6-0.2-2.4-2l4.8-5.6L62.6,12l2-2.5l3.2,3.9l2.8-3.2c1.4-1.6,2.8-3.7,4.6-4.8H30.4v20.5h10.5c4.9,0,7.1-2.9,10.3-6.8
		l3-3.7l-5.1-5.8c-1.2-1.8,1-3.6,2.4-2l4.7,5.4l4.3-5.3c1.4-1.7,3.6,0.1,2.5,1.9l-4.7,5.7l3.3,3.7l-2.1,2.4l-3.2-3.7L53.6,21
		c-1.3,1.6-2.7,3.7-4.4,4.8h44.4V5.4H83.5L83.5,5.4z M49,15.2c0,4.6-3.7,8.3-8.3,8.3c-4.6,0-8.3-3.7-8.3-8.3c0-4.6,3.7-8.3,8.3-8.3
		C45.3,6.9,49,10.6,49,15.2L49,15.2z M83.9,23.5c-4.6,0-8.3-3.7-8.3-8.3c0-4.6,3.7-8.3,8.3-8.3c4.6,0,8.3,3.7,8.3,8.3
		C92.2,19.8,88.5,23.5,83.9,23.5L83.9,23.5z"/>
</g>
</svg>
